<?xml version="1.0" standalone="no"?>
<!DOCTYPE svg PUBLIC "-//W3C//DTD SVG 20010904//EN"
 "http://www.w3.org/TR/2001/REC-SVG-20010904/DTD/svg10.dtd">
<svg version="1.0" xmlns="http://www.w3.org/2000/svg"
 width="1292.000000pt" height="948.000000pt" viewBox="0 0 1292.000000 948.000000"
 preserveAspectRatio="xMidYMid meet">

<g transform="translate(0.000000,948.000000) scale(0.100000,-0.100000)"
fill="#000000" stroke="none">
<path d="M3007 9450 c-17 -20 -28 -48 -32 -85 -4 -31 -6 -57 -4 -59 32 -24
389 -339 389 -343 0 -3 -9 2 -20 12 -20 18 -21 18 -34 -1 -40 -53 -136 -257
-136 -287 0 -50 58 -127 209 -277 200 -199 452 -387 709 -531 247 -138 614
-305 892 -404 74 -27 149 -59 165 -71 17 -12 168 -143 336 -290 326 -287 687
-603 1094 -959 138 -121 356 -312 485 -425 129 -113 343 -300 475 -415 393
-343 648 -566 675 -591 l24 -24 -21 -22 -22 -21 -228 83 c-352 128 -791 289
-1078 395 -143 53 -309 114 -370 135 -60 21 -245 89 -410 150 -327 121 -518
191 -1410 517 -1007 367 -1070 392 -1285 504 -310 161 -931 468 -1099 542
-182 81 -297 120 -404 137 -93 15 -234 9 -300 -14 l-47 -17 -198 72 c-108 39
-244 89 -302 110 -73 28 -113 38 -132 33 -38 -8 -74 -58 -93 -129 -27 -107
-47 -92 241 -190 237 -82 255 -90 249 -109 -31 -110 -38 -153 -39 -231 0 -50
5 -107 13 -128 17 -50 64 -103 114 -129 72 -36 937 -198 1367 -255 166 -22
250 -27 570 -32 l375 -7 755 -258 c415 -141 1034 -351 1375 -466 341 -115 901
-304 1245 -420 344 -116 713 -241 820 -277 107 -36 197 -67 199 -70 3 -2 0 -8
-5 -13 -6 -6 -80 7 -204 35 -226 51 -769 174 -1180 268 -998 229 -1318 302
-2550 582 -1011 231 -1052 241 -1430 359 -835 262 -1525 426 -1789 426 -45 0
-91 -5 -102 -10 -14 -8 -104 8 -381 70 -200 45 -378 80 -397 78 -54 -5 -76
-43 -76 -131 l0 -72 78 -22 c42 -12 178 -46 301 -74 181 -43 221 -55 211 -66
-22 -21 -38 -112 -33 -182 13 -184 166 -296 452 -331 259 -31 1224 -42 1841
-21 l260 9 1005 -210 c553 -116 1057 -221 1120 -235 63 -13 333 -69 600 -123
267 -55 625 -128 795 -164 171 -36 326 -68 345 -71 19 -3 188 -38 375 -76 187
-39 409 -85 493 -102 83 -18 152 -35 152 -38 0 -4 -48 -51 -107 -105 -60 -54
-119 -107 -131 -119 l-24 -22 32 -64 32 -63 52 55 c28 30 82 87 120 128 78 84
77 81 -39 -100 -47 -74 -85 -139 -85 -145 0 -19 50 -60 58 -47 4 6 61 111 127
232 85 157 125 221 138 221 9 0 17 -6 17 -12 -1 -7 -45 -128 -99 -268 -60
-154 -95 -259 -90 -266 10 -13 108 -59 112 -53 2 2 41 134 86 293 l83 288 -17
44 c-9 25 -24 51 -32 59 -13 14 -10 21 25 63 22 26 49 56 61 66 11 11 21 23
21 27 0 6 -278 268 -441 414 -72 65 -314 289 -454 420 -71 67 -238 220 -369
341 -132 120 -357 327 -500 459 -347 320 -581 534 -1019 934 -279 254 -462
432 -765 745 -476 492 -609 632 -713 751 -128 148 -218 205 -335 213 -71 4
-72 5 -141 66 -193 170 -420 364 -465 398 -62 47 -97 49 -131 8z m408 -530
c10 -11 16 -20 13 -20 -3 0 -13 9 -23 20 -10 11 -16 20 -13 20 3 0 13 -9 23
-20z m76 -67 c13 -16 12 -17 -3 -4 -17 13 -22 21 -14 21 2 0 10 -8 17 -17z
m-2838 -2820 c-7 -2 -19 -2 -25 0 -7 3 -2 5 12 5 14 0 19 -2 13 -5z m44 -9
c-3 -3 -12 -4 -19 -1 -8 3 -5 6 6 6 11 1 17 -2 13 -5z m50 -10 c-3 -3 -12 -4
-19 -1 -8 3 -5 6 6 6 11 1 17 -2 13 -5z"/>
<path d="M11040 8228 c-12 -22 -12 -22 6 -6 10 10 15 20 12 24 -4 3 -12 -5
-18 -18z"/>
<path d="M11010 8225 c-7 -9 -10 -18 -7 -21 3 -3 10 4 17 15 13 25 8 27 -10 6z"/>
<path d="M11055 8200 c-16 -16 -26 -32 -23 -35 3 -3 17 10 32 30 33 43 29 45
-9 5z"/>
<path d="M11081 8170 c-17 -22 -28 -40 -24 -39 11 1 67 69 61 74 -3 3 -19 -13
-37 -35z"/>
<path d="M11126 8145 c-21 -25 -34 -45 -31 -45 7 0 55 54 68 76 16 28 -1 13
-37 -31z"/>
<path d="M11414 8018 l-19 -23 23 19 c21 18 27 26 19 26 -2 0 -12 -10 -23 -22z"/>
<path d="M11430 7958 c-12 -22 -12 -22 6 -6 10 10 15 20 12 24 -4 3 -12 -5
-18 -18z"/>
<path d="M11566 7764 c-48 -58 -86 -107 -84 -110 4 -3 156 176 172 204 17 29
-5 6 -88 -94z"/>
<path d="M11530 7785 c-7 -9 -8 -15 -2 -15 5 0 12 7 16 15 3 8 4 15 2 15 -2 0
-9 -7 -16 -15z"/>
<path d="M11714 7643 c-115 -138 -127 -153 -120 -153 3 0 47 51 98 113 111
133 122 147 116 147 -3 0 -45 -48 -94 -107z"/>
<path d="M11754 7502 c-77 -93 -117 -147 -82 -112 38 39 170 202 166 205 -2 3
-40 -39 -84 -93z"/>
<path d="M11860 7430 c-9 -6 -10 -10 -3 -10 6 0 15 5 18 10 8 12 4 12 -15 0z"/>
<path d="M12029 7158 c-168 -205 -163 -198 -156 -198 3 0 69 78 148 173 170
206 163 197 156 197 -3 0 -70 -78 -148 -172z"/>
<path d="M11750 7295 c-7 -9 -8 -15 -2 -15 5 0 12 7 16 15 3 8 4 15 2 15 -2 0
-9 -7 -16 -15z"/>
<path d="M12251 7151 c-7 -5 -11 -17 -8 -27 4 -13 -7 -34 -33 -64 -32 -36 -39
-40 -37 -22 0 11 3 19 6 16 3 -2 11 10 18 27 7 18 12 33 11 35 -4 3 -251 -295
-261 -315 -9 -17 17 10 71 74 20 23 31 32 27 20 -5 -15 -3 -17 6 -8 6 6 18 9
25 6 8 -3 14 -1 14 4 0 4 20 30 45 57 25 27 45 51 45 54 0 2 21 30 48 61 26
31 54 65 62 76 14 18 14 19 -2 7 -10 -8 -17 -9 -20 -3 -2 6 -9 7 -17 2z m19
-15 c0 -3 -4 -8 -10 -11 -5 -3 -10 -1 -10 4 0 6 5 11 10 11 6 0 10 -2 10 -4z
m-106 -114 c4 -7 -80 -122 -89 -122 -3 0 -1 8 2 18 6 15 5 16 -12 2 -18 -14
-18 -14 -5 6 26 36 85 103 92 104 4 0 9 -4 12 -8z"/>
<path d="M12139 7003 c-13 -16 -12 -17 4 -4 9 7 17 15 17 17 0 8 -8 3 -21 -13z"/>
<path d="M12095 6953 l-17 -28 23 22 c12 12 20 25 17 28 -3 3 -13 -7 -23 -22z"/>
<path d="M12077 7092 c-10 -10 -17 -22 -17 -27 0 -4 9 2 20 15 11 13 20 25 20
27 0 7 -8 2 -23 -15z"/>
<path d="M12316 7093 c-6 -14 -5 -15 5 -6 7 7 10 15 7 18 -3 3 -9 -2 -12 -12z"/>
<path d="M12009 7053 c-13 -16 -12 -17 4 -4 9 7 17 15 17 17 0 8 -8 3 -21 -13z"/>
<path d="M12285 7060 c-3 -5 -1 -10 4 -10 6 0 11 5 11 10 0 6 -2 10 -4 10 -3
0 -8 -4 -11 -10z"/>
<path d="M12300 6983 c-30 -37 -86 -105 -123 -150 -38 -46 -65 -83 -60 -82 10
0 255 299 245 299 -4 0 -32 -31 -62 -67z"/>
<path d="M11926 6954 c-5 -14 -4 -15 9 -4 17 14 19 20 6 20 -5 0 -12 -7 -15
-16z"/>
<path d="M6906 3480 l-196 -181 0 -182 0 -182 58 60 c31 34 144 154 250 268
156 169 190 211 183 225 -5 9 -30 52 -54 95 l-45 78 -196 -181z"/>
<path d="M7271 3157 c-296 -463 -291 -454 -291 -516 0 -54 2 -59 45 -101 27
-27 48 -40 53 -35 5 6 85 147 177 315 92 168 176 319 186 336 l18 30 -52 52
-52 51 -84 -132z"/>
<path d="M7552 2776 l-102 -271 0 -136 0 -136 81 -37 c45 -21 85 -34 89 -29 9
8 230 769 230 789 0 6 -23 19 -52 29 -29 9 -73 27 -98 40 l-45 23 -103 -272z"/>
<path d="M9554 243 c-149 -180 -160 -196 -116 -164 18 12 32 28 32 36 0 7 11
20 25 29 14 9 25 22 25 29 0 7 38 59 85 115 77 94 91 112 82 112 -1 0 -61 -71
-133 -157z"/>
<path d="M9860 298 c-112 -135 -122 -148 -116 -148 6 0 206 238 206 245 0 11
-9 1 -90 -97z"/>
<path d="M8878 211 c-68 -83 -129 -150 -137 -150 -8 -1 -11 -4 -8 -8 8 -7 -11
-33 -25 -33 -5 0 -3 10 3 23 11 20 11 21 -4 8 -14 -11 -17 -11 -17 0 0 12 -2
12 -9 0 -14 -21 -3 -38 23 -37 22 1 99 87 298 334 6 6 8 12 5 12 -4 0 -62 -67
-129 -149z"/>
<path d="M9907 245 c-43 -51 -44 -55 -17 -48 11 3 20 14 20 25 0 12 4 17 13
12 6 -4 9 -3 4 1 -4 5 0 17 10 27 9 10 14 20 12 23 -3 2 -22 -15 -42 -40z"/>
<path d="M8870 249 c0 -5 5 -7 10 -4 6 3 10 8 10 11 0 2 -4 4 -10 4 -5 0 -10
-5 -10 -11z"/>
<path d="M9410 213 c0 -5 -18 -28 -41 -51 -22 -24 -39 -47 -37 -51 2 -5 25 18
51 51 27 32 44 58 38 58 -6 0 -11 -3 -11 -7z"/>
<path d="M7959 183 c-13 -16 -12 -17 4 -4 16 13 21 21 13 21 -2 0 -10 -8 -17
-17z"/>
<path d="M8040 175 c-13 -14 -21 -27 -18 -30 2 -3 14 9 27 25 26 37 23 39 -9
5z"/>
<path d="M8131 159 c-43 -53 -36 -60 8 -8 18 22 31 42 29 45 -3 2 -19 -14 -37
-37z"/>
<path d="M8500 149 c-23 -27 -40 -52 -38 -55 4 -3 29 26 81 94 5 6 7 12 5 12
-3 0 -24 -23 -48 -51z"/>
<path d="M7975 171 c-3 -5 -2 -12 3 -15 5 -3 9 1 9 9 0 17 -3 19 -12 6z"/>
<path d="M8793 158 c-20 -26 -26 -41 -15 -34 12 7 36 46 29 46 -3 0 -9 -6 -14
-12z"/>
<path d="M8925 159 c-4 -6 -5 -12 -2 -15 2 -3 7 2 10 11 7 17 1 20 -8 4z"/>
<path d="M8597 143 c-4 -3 -7 -11 -7 -17 0 -6 5 -5 12 2 6 6 9 14 7 17 -3 3
-9 2 -12 -2z"/>
<path d="M8955 120 c-3 -6 1 -7 9 -4 18 7 21 14 7 14 -6 0 -13 -4 -16 -10z"/>
<path d="M8427 113 c-4 -3 -7 -11 -7 -17 0 -6 5 -5 12 2 6 6 9 14 7 17 -3 3
-9 2 -12 -2z"/>
<path d="M8740 88 c-12 -22 -12 -22 6 -6 10 10 15 20 12 24 -4 3 -12 -5 -18
-18z"/>
<path d="M9294 68 l-19 -23 23 19 c12 11 22 21 22 23 0 8 -8 2 -26 -19z"/>
<path d="M8926 64 c-5 -14 -4 -15 9 -4 17 14 19 20 6 20 -5 0 -12 -7 -15 -16z"/>
<path d="M8519 43 c-13 -16 -12 -17 4 -4 9 7 17 15 17 17 0 8 -8 3 -21 -13z"/>
<path d="M8890 25 c-8 -9 -8 -15 -2 -15 12 0 26 19 19 26 -2 2 -10 -2 -17 -11z"/>
</g>
</svg>
