<?xml version="1.0" standalone="no"?>
<!DOCTYPE svg PUBLIC "-//W3C//DTD SVG 20010904//EN"
 "http://www.w3.org/TR/2001/REC-SVG-20010904/DTD/svg10.dtd">
<svg version="1.0" xmlns="http://www.w3.org/2000/svg"
 width="512.000000pt" height="512.000000pt" viewBox="0 0 512.000000 512.000000"
 preserveAspectRatio="xMidYMid meet">

<g transform="translate(0.000000,512.000000) scale(0.100000,-0.100000)"
fill="#000000" stroke="none">
<path d="M2340 4199 c-322 -39 -664 -160 -995 -352 -363 -209 -789 -572 -1106
-942 -167 -194 -239 -298 -239 -345 0 -35 34 -90 133 -214 211 -262 486 -538
743 -745 461 -369 911 -587 1379 -668 124 -21 469 -24 590 -5 655 106 1332
517 1933 1172 128 140 295 347 322 400 37 72 25 100 -112 272 -195 243 -450
503 -681 696 -464 386 -939 627 -1407 713 -132 24 -435 34 -560 18z m420 -209
c242 -30 477 -105 730 -231 166 -83 381 -215 515 -317 277 -210 581 -505 805
-782 l81 -100 -48 -63 c-131 -169 -416 -468 -598 -626 -475 -411 -931 -647
-1415 -733 -100 -17 -441 -17 -540 0 -465 83 -928 321 -1385 711 -202 173
-428 405 -595 611 l-81 100 48 63 c70 91 154 187 277 317 560 591 1191 965
1766 1045 118 16 328 18 440 5z"/>
<path d="M2423 3890 c-404 -46 -754 -259 -980 -595 -88 -132 -157 -300 -194
-478 -31 -143 -31 -371 0 -514 36 -172 112 -364 161 -408 15 -14 36 -20 67
-20 38 0 49 5 75 34 38 43 35 73 -19 196 -63 142 -84 237 -90 408 -4 94 -1
176 7 225 60 376 313 704 660 853 429 185 914 93 1246 -236 538 -535 395
-1448 -282 -1795 -177 -91 -344 -125 -567 -117 -165 6 -263 28 -402 90 -123
54 -153 57 -196 19 -29 -26 -34 -37 -34 -75 0 -59 20 -81 120 -127 281 -131
593 -160 897 -83 428 107 779 428 927 846 54 155 74 273 74 447 0 174 -20 292
-74 447 -136 385 -446 690 -835 821 -156 53 -403 80 -561 62z"/>
<path d="M2445 3380 c-190 -30 -348 -113 -481 -252 -153 -159 -228 -346 -228
-568 0 -235 86 -434 257 -597 247 -234 601 -295 910 -155 172 78 330 236 408
408 81 179 102 413 43 484 -38 45 -71 47 -156 8 -66 -30 -82 -33 -168 -33 -82
0 -103 4 -151 26 -79 37 -133 90 -171 167 -27 55 -34 81 -36 148 -3 70 0 90
23 145 46 111 49 123 34 154 -25 50 -58 66 -145 70 -43 2 -106 0 -139 -5z"/>
<path d="M1618 1763 c-36 -38 -43 -72 -24 -117 29 -69 112 -81 173 -24 35 33
32 100 -6 139 -41 41 -106 41 -143 2z"/>
</g>
</svg>
